<svg xmlns="http://www.w3.org/2000/svg" height="512" viewBox="0 0 512 511" width="512"><path d="M143.871 512.484c-10.398 0-20.598-4.062-28.281-11.734l-97.961-97.754C6.262 391.652 0 376.562 0 360.504s6.262-31.152 17.629-42.496l97.96-97.754c11.513-11.492 28.665-14.887 43.696-8.652 15.012 6.226 24.711 20.742 24.711 36.976V340.5C342.801 340.5 472 211.3 472 52.496V20.5c0-11.047 8.953-20 20-20s20 8.953 20 20v31.996c0 87.613-34.117 169.984-96.07 231.938-61.953 61.949-144.32 96.07-231.934 96.07-22.059 0-40.004-17.945-40.004-40v-91.938a.85.85 0 0 0-.105-.043c-.012.016-.028.028-.043.043l-97.961 97.758A19.9 19.9 0 0 0 40 360.504a19.9 19.9 0 0 0 5.883 14.18l97.96 97.753.044.043c.035-.011.074-.023.105-.039v-21.937c0-11.047 8.957-20 20.004-20 11.043 0 20 8.953 20 20v21.922c0 16.234-9.7 30.75-24.71 36.976a40.16 40.16 0 0 1-15.415 3.082zm0 0" data-original="#000000" class="active-path" data-old_color="#000000" fill="#FFF"/></svg>