<svg xmlns="http://www.w3.org/2000/svg" viewBox="0 0 512 512" width="512" height="512"><path d="M434.79 342.767l-5.074-8.289a218.599 218.599 0 0 0-35.67-44.145l-16.965-16.154a4.438 4.438 0 0 1-.575-5.797l23.164-33.008a145.059 145.059 0 0 0 9.163-14.899l19.794-37.037c3.45-6.454 3.266-14.057-.494-20.337-3.758-6.279-10.373-10.034-17.691-10.042l-42.845-.049h-.026a22.62 22.62 0 0 0-20.712 13.529l-4.538 10.34a255.708 255.708 0 0 1-46.988 71.525v-75.487c0-10.982-8.935-19.917-19.916-19.917h-60.681c-9.964 0-18.069 8.106-18.069 18.07 0 3.805 1.173 7.45 3.391 10.538l4.246 5.915a33.7 33.7 0 0 1 6.363 19.772v55.159c-7.483-8.691-16.594-20.493-24.307-34.062-11.811-20.78-20.277-45.011-24.272-57.606C158.713 160.148 148.949 153 137.79 153H94.396c-6.124 0-11.756 2.8-15.456 7.682-3.697 4.883-4.866 11.065-3.205 16.962l8.095 28.73a264.6 264.6 0 0 0 20.27 50.957c2.562 4.891 8.604 6.78 13.498 4.217 4.893-2.563 6.78-8.607 4.217-13.499a244.683 244.683 0 0 1-18.734-47.098L95.206 173h42.585a5.47 5.47 0 0 1 5.233 3.833c4.233 13.343 13.233 39.07 25.95 61.441 10.434 18.356 23.093 33.648 31.877 43.244 4.812 5.257 12.216 6.988 18.862 4.404 6.654-2.585 10.954-8.868 10.954-16.005v-62.622c0-11.349-3.499-22.22-10.116-31.437L218.498 173h56.835v80.195a17.087 17.087 0 0 0 7.881 14.434 17.082 17.082 0 0 0 16.403 1.175l4.123-1.882a15.946 15.946 0 0 0 5.018-3.594 275.711 275.711 0 0 0 51.878-78.413l4.538-10.34a2.616 2.616 0 0 1 2.397-1.566h.003l42.845.049c.146 0 .367.001.555.315.189.315.084.509.016.638l-19.794 37.036a125.189 125.189 0 0 1-7.896 12.838l-23.164 33.008c-7.012 9.992-5.685 23.353 3.154 31.77l16.964 16.154a198.62 198.62 0 0 1 32.406 40.104l5.074 8.289c.122.199.493.806.031 1.631-.462.825-1.174.825-1.407.825h-36.989a17.8 17.8 0 0 1-12.692-5.361l-36.986-38.03a63.48 63.48 0 0 0-31.988-17.797c-5.473-1.203-11.123.122-15.493 3.637s-6.876 8.746-6.876 14.353v37.366a5.84 5.84 0 0 1-5.833 5.833c-28.662 0-56.985-9.59-79.752-27.003a244.9 244.9 0 0 1-26.001-22.994c-3.866-3.942-10.197-4.007-14.142-.14-3.944 3.867-4.006 10.199-.14 14.142a264.86 264.86 0 0 0 28.132 24.878c26.235 20.066 58.873 31.117 91.902 31.117 14.244 0 25.833-11.589 25.833-25.833V314.48a43.52 43.52 0 0 1 20.02 11.74l36.986 38.03c7.056 7.255 16.908 11.417 27.03 11.417h36.989a21.631 21.631 0 0 0 18.855-11.05 21.637 21.637 0 0 0-.423-21.85z" data-original="#000000" class="active-path" data-old_color="#000000" fill="#FFF"/><path d="M140.056 277.553l-.111-.155c-3.219-4.488-9.465-5.519-13.954-2.3-4.488 3.219-5.518 9.466-2.3 13.954l.068.096 8.17-5.768-8.127 5.827a9.988 9.988 0 0 0 8.136 4.174 9.959 9.959 0 0 0 5.818-1.874c4.488-3.219 5.518-9.466 2.3-13.954zM204.864 444h-81.5c-5.522 0-10 4.477-10 10s4.478 10 10 10h81.5c5.523 0 10-4.477 10-10s-4.478-10-10-10zm45.5 0h-.119c-5.522 0-10 4.477-10 10s4.478 10 10 10h.119c5.523 0 10-4.477 10-10s-4.478-10-10-10z" data-original="#000000" class="active-path" data-old_color="#000000" fill="#FFF"/><path d="M446 0H66C29.607 0 0 29.607 0 66v380c0 36.393 29.607 66 66 66h380c36.393 0 66-29.607 66-66V66c0-36.393-29.607-66-66-66zm46 446c0 25.364-20.636 46-46 46H66c-25.364 0-46-20.636-46-46V66c0-25.364 20.636-46 46-46h380c25.364 0 46 20.636 46 46v380z" data-original="#000000" class="active-path" data-old_color="#000000" fill="#FFF"/></svg>